<svg width="24" height="24" viewBox="0 0 24 24" fill="none" xmlns="http://www.w3.org/2000/svg">
<g clip-path="url(#clip0_1_181)">
<path d="M12.3754 1.49403L12.3753 6.74101H17.6328V8.99027H12.3986L12.3911 15.5183C12.3911 16.7318 12.4541 17.5107 12.5823 17.8561C12.7822 18.4009 13.5097 19.0984 14.8601 19.0984C15.9075 19.0984 17.3205 18.7834 18.3794 17.9911V21.4906C17.4963 21.9117 16.6751 22.0815 15.9596 22.2514C15.2433 22.4205 14.4675 22.5057 13.6357 22.5057C12.7091 22.5057 10.0342 22.4802 8.9366 19.6838C8.73897 19.1806 8.64 18.4497 8.64 17.4931V8.99406H5.62013L5.63475 6.69419C6.6345 6.69419 9.63375 6.08704 9.63375 1.49405L12.3754 1.49403ZM12.3753 -0.00599561L9.6337 -0.00604248C8.80533 -0.00604248 8.1337 0.665583 8.1337 1.49396C8.1337 4.92746 6.22045 5.19409 5.6347 5.19409C4.80933 5.19409 4.13846 5.86122 4.13471 6.68659L4.12008 8.98647C4.11783 9.38547 4.27533 9.76872 4.55658 10.0522C4.69605 10.1922 4.86179 10.3033 5.04429 10.3791C5.22679 10.4549 5.42246 10.494 5.62008 10.494H7.13995V17.493C7.13995 18.6502 7.2712 19.5469 7.54045 20.2324C8.21655 21.9536 9.8227 24.006 13.6357 24.006C14.5799 24.006 15.4777 23.907 16.3046 23.7116L16.4699 23.6726C17.17 23.508 18.0644 23.3029 19.0248 22.845C19.2807 22.7231 19.4967 22.5312 19.648 22.2916C19.7992 22.0519 19.8795 21.7743 19.8794 21.4909V17.9914C19.8794 17.713 19.8019 17.4401 19.6556 17.2033C19.5093 16.9665 19.3 16.775 19.051 16.6504C18.8388 16.5436 18.6085 16.4914 18.3794 16.4914C18.0555 16.4914 17.7403 16.5963 17.4809 16.7903C16.588 17.4589 15.4454 17.5988 14.8604 17.5988C14.2604 17.5988 14.0373 17.3813 13.9882 17.3236C13.9627 17.2058 13.8914 16.7663 13.8914 15.5187L13.8967 10.4907H17.6328C18.4612 10.4907 19.1328 9.81902 19.1328 8.99067V6.74137C19.1328 5.91299 18.4612 5.24136 17.6328 5.24136H13.8753V1.49401C13.8753 0.66563 13.2037 -0.00599561 12.3753 -0.00599561H12.3753Z" fill="#F3F3F3"/>
</g>
<defs>
<clipPath id="clip0_1_181">
<rect width="24" height="24" fill="white"/>
</clipPath>
</defs>
</svg>
