<svg width="24" height="24" viewBox="0 0 24 24" fill="none" xmlns="http://www.w3.org/2000/svg">
<g clip-path="url(#clip0_1_187)">
<path d="M16.0407 3.71927C17.28 3.71927 18.399 4.22636 19.1872 5.04048C20.1678 4.85073 21.0922 4.50498 21.9229 4.02611C21.6015 5.00188 20.9179 5.82048 20.0288 6.33836C20.8988 6.23598 21.7316 6.01248 22.5045 5.67836C21.9251 6.51611 21.1958 7.25373 20.3535 7.84323C20.3614 8.02211 20.3659 8.20286 20.3659 8.38283C20.3659 13.9077 16.0298 20.28 8.10078 20.28C5.66703 20.28 3.40015 19.5856 1.49367 18.3998C1.83474 18.4395 2.17782 18.4593 2.52117 18.459C4.54055 18.459 6.40015 17.7912 7.87578 16.6684C5.9884 16.6362 4.3954 15.4261 3.84903 13.7659C4.11662 13.8161 4.38828 13.8413 4.66053 13.8413C5.0524 13.8413 5.43415 13.7907 5.7949 13.6947C3.82315 13.3118 2.33703 11.6217 2.33703 9.59476V9.54116C2.91865 9.85466 3.58278 10.0429 4.2904 10.0647C3.13315 9.31389 2.37228 8.03591 2.37228 6.58501C2.37228 5.81814 2.5853 5.09964 2.95617 4.48426C5.08168 7.01251 8.25793 8.67751 11.8411 8.85264C11.7672 8.54736 11.7289 8.22489 11.7289 7.90051C11.7289 5.59089 13.659 3.71927 16.0407 3.71927ZM22.5045 5.67913H22.5082H22.5045ZM16.0406 2.21936C13.0953 2.21936 10.6553 4.37113 10.2795 7.15138C7.86975 6.66726 5.67825 5.39151 4.10363 3.51988C3.96286 3.35243 3.78718 3.2178 3.58888 3.12543C3.39058 3.03306 3.17448 2.98518 2.95573 2.98516C2.91644 2.98517 2.87717 2.98667 2.838 2.98966C2.60024 3.0087 2.37042 3.08406 2.16756 3.20953C1.9647 3.33499 1.79462 3.50694 1.67138 3.71116C1.14843 4.57886 0.872126 5.5728 0.872229 6.5859C0.872229 7.26203 0.993706 7.92053 1.22398 8.53628C0.978729 8.8089 0.837354 9.16553 0.837354 9.54203V9.59565C0.837354 11.0649 1.41823 12.4284 2.38273 13.4503C2.32723 13.7075 2.3396 13.9768 2.42435 14.2348C2.757 15.2469 3.36263 16.1191 4.14788 16.7836C3.6206 16.901 3.0765 16.9602 2.5211 16.9602C2.22748 16.9602 1.94173 16.9441 1.67135 16.9111C1.61135 16.9036 1.5521 16.901 1.49248 16.901C0.862479 16.901 0.290604 17.2981 0.0783537 17.9037C-0.154521 18.5675 0.103877 19.3032 0.700854 19.6748C2.91638 21.0534 5.47536 21.7812 8.10036 21.7812C16.6324 21.7812 21.7646 15.1021 21.8644 8.57786C22.5645 7.99862 23.183 7.32728 23.703 6.58211C23.9005 6.32281 24.0072 6.00578 24.0067 5.67986C24.0067 5.16948 23.7514 4.71836 23.3625 4.44721C23.5309 3.87009 23.3389 3.24534 22.8701 2.86359C22.5964 2.64084 22.2607 2.52759 21.9232 2.52759C21.6602 2.52734 21.4017 2.59655 21.174 2.72821C20.6782 3.01398 20.148 3.24011 19.5896 3.40288C18.5793 2.64276 17.3268 2.21938 16.0406 2.21936Z" fill="#F3F3F3"/>
</g>
<defs>
<clipPath id="clip0_1_187">
<rect width="24" height="24" fill="white"/>
</clipPath>
</defs>
</svg>
