<svg width="24" height="24" viewBox="0 0 24 24" fill="none" xmlns="http://www.w3.org/2000/svg">
<g clip-path="url(#clip0_1_185)">
<path d="M22.0484 4.44601C21.3982 3.97801 19.5862 3.35626 11.9936 3.35626C3.85723 3.35626 2.65011 4.07026 2.26272 4.30389C0.20097 5.54249 0.00522017 11.0261 -0.0127563 12.138C0.0119936 13.6065 0.249368 18.4924 2.26124 19.701C2.64789 19.9339 3.84823 20.6437 11.9936 20.6437C19.5911 20.6437 21.4008 20.025 22.0484 19.5589C23.8057 18.2948 24.0078 13.9414 24.0127 12.1189C24.0082 10.6534 23.8544 5.74691 22.0485 4.44603L22.0484 4.44601ZM21.1724 18.3416C20.9111 18.5299 19.4103 19.1437 11.9935 19.1437C4.82319 19.1437 3.31869 18.5872 3.03444 18.4158C2.31069 17.9816 1.54682 15.6765 1.48684 12.1339C1.54609 8.59911 2.32047 6.01874 3.03599 5.58974C3.32099 5.41761 4.83108 4.85661 11.9935 4.85661C19.4043 4.85661 20.9092 5.47464 21.1724 5.66364C21.8148 6.12638 22.5025 8.56238 22.5127 12.1238C22.5025 15.741 21.8103 17.8826 21.1724 18.3416H21.1724ZM16.8847 11.4101L10.1362 7.26894C10.0225 7.20034 9.89254 7.16318 9.7597 7.16127C9.62687 7.15936 9.49591 7.19276 9.38022 7.25806C9.26443 7.32337 9.16806 7.41827 9.10099 7.53305C9.03391 7.64783 8.99853 7.77837 8.99847 7.91131V16.1951C8.99857 16.3939 9.07762 16.5846 9.21825 16.7253C9.35888 16.8659 9.54959 16.945 9.74847 16.9451C9.88497 16.9451 10.0189 16.9079 10.1358 16.8374L16.8843 12.6948C17.1093 12.5587 17.247 12.3154 17.247 12.0525C17.247 11.7896 17.1097 11.5455 16.8847 11.4101H16.8847ZM10.4989 14.8664V9.23916L15.0457 12.0524L10.4989 14.8664Z" fill="#F3F3F3"/>
</g>
<defs>
<clipPath id="clip0_1_185">
<rect width="24" height="24" fill="white"/>
</clipPath>
</defs>
</svg>
