<svg width="16" height="24" viewBox="0 0 16 24" fill="none" xmlns="http://www.w3.org/2000/svg">
<path d="M8.38137 1.49932L8.38132 6.74367H13.7191V8.99179H8.40493L8.39731 15.5165C8.39731 16.7294 8.46127 17.5079 8.59148 17.8531C8.79441 18.3977 9.53302 19.0949 10.904 19.0949C11.9674 19.0949 13.402 18.78 14.4771 17.9881V21.4858C13.5805 21.9067 12.7467 22.0765 12.0203 22.2463C11.2931 22.4153 10.5054 22.5004 9.66099 22.5004C8.72019 22.5004 6.00447 22.4749 4.89009 19.68C4.68945 19.177 4.58896 18.4465 4.58896 17.4903V8.99559H1.52298L1.53782 6.69686C2.55284 6.69686 5.59788 6.09002 5.59788 1.49934L8.38137 1.49932ZM8.38132 4.68516e-05L5.59783 0C4.75681 0 4.07493 0.671289 4.07493 1.49925C4.07493 4.93103 2.13247 5.19752 1.53778 5.19752C0.699798 5.19752 0.0186799 5.86431 0.0148726 6.68927L2.41433e-05 8.988C-0.00226021 9.3868 0.157645 9.76986 0.443189 10.0532C0.584788 10.1931 0.753057 10.3042 0.938344 10.3799C1.12363 10.4557 1.32229 10.4947 1.52293 10.4947H3.06601V17.4902C3.06601 18.6469 3.19926 19.5431 3.47262 20.2282C4.15905 21.9486 5.78972 24 9.66094 24C10.6196 24 11.531 23.901 12.3706 23.7058L12.5384 23.6668C13.2493 23.5022 14.1573 23.2972 15.1323 22.8396C15.3921 22.7178 15.6115 22.526 15.765 22.2864C15.9186 22.0469 16.0001 21.7694 16 21.4861V17.9884C16 17.7101 15.9213 17.4374 15.7728 17.2007C15.6242 16.964 15.4117 16.7726 15.159 16.6481C14.9435 16.5413 14.7097 16.4892 14.4771 16.4892C14.1482 16.4892 13.8282 16.594 13.5649 16.7879C12.6584 17.4562 11.4983 17.596 10.9043 17.596C10.2952 17.596 10.0687 17.3786 10.0188 17.3209C9.99293 17.2032 9.9206 16.7639 9.9206 15.5169L9.9259 10.4914H13.7191C14.5601 10.4914 15.242 9.82013 15.242 8.99219V6.74402C15.242 5.91606 14.5601 5.24477 13.7191 5.24477H9.9042V1.4993C9.9042 0.671335 9.22232 4.68516e-05 8.3813 4.68516e-05H8.38132Z" fill="#F3F3F3"/>
</svg>
