<svg width="24" height="17" viewBox="0 0 24 17" fill="none" xmlns="http://www.w3.org/2000/svg">
<path d="M22.0378 1.07163C21.3883 0.61141 19.5782 0 11.9936 0C3.86589 0 2.66005 0.702126 2.27306 0.931866C0.2135 2.14987 0.0179575 7.5423 0 8.63568C0.0247237 10.0798 0.261847 14.8844 2.27159 16.073C2.65782 16.3019 3.8569 17 11.9936 17C19.5831 17 21.3909 16.3915 22.0378 15.9332C23.7932 14.6901 23.9951 10.4091 24 8.61692C23.9955 7.17579 23.8419 2.35089 22.0379 1.07165L22.0378 1.07163ZM21.1628 14.7362C20.9017 14.9213 19.4025 15.5249 11.9936 15.5249C4.83082 15.5249 3.32792 14.9777 3.04397 14.8092C2.32099 14.3821 1.55792 12.1153 1.49801 8.63163C1.5572 5.15566 2.33075 2.6182 3.04551 2.19633C3.33021 2.02707 4.83871 1.4754 11.9936 1.4754C19.3965 1.4754 20.8997 2.08315 21.1627 2.269C21.8045 2.72406 22.4915 5.11954 22.5016 8.62169C22.4915 12.1788 21.7999 14.2848 21.1627 14.7362H21.1628ZM16.8795 7.91989L10.1383 3.84761C10.0246 3.78015 9.8948 3.74361 9.76211 3.74173C9.62942 3.73985 9.4986 3.7727 9.38303 3.83692C9.26736 3.90114 9.1711 3.99446 9.10409 4.10733C9.03709 4.2202 9.00175 4.34857 9.00169 4.4793V12.6253C9.00179 12.8209 9.08075 13.0084 9.22123 13.1467C9.36171 13.285 9.55222 13.3627 9.75089 13.3628C9.88725 13.3628 10.021 13.3262 10.1378 13.257L16.8792 9.18325C17.104 9.04941 17.2414 8.81011 17.2414 8.55158C17.2414 8.29305 17.1043 8.05301 16.8796 7.91989H16.8795ZM10.5005 11.3188V5.78507L15.0425 8.55154L10.5005 11.3188Z" fill="#F3F3F3"/>
</svg>
